<svg xmlns="http://www.w3.org/2000/svg" xmlns:xlink="http://www.w3.org/1999/xlink" version="1.1" width="256" height="256" viewBox="0 0 256 256" xml:space="preserve">

<defs>
</defs>
<g style="stroke: none; stroke-width: 0; stroke-dasharray: none; stroke-linecap: butt; stroke-linejoin: miter; stroke-miterlimit: 10; fill: none; fill-rule: nonzero; opacity: 1;" transform="translate(1.4065934065934016 1.4065934065934016) scale(2.81 2.81)" >
	<path d="M 30.12 36.327 l -5.071 0 c -1.093 0 -1.979 -0.886 -1.979 -1.979 v -8.341 c 0 -1.093 0.886 -1.979 1.979 -1.979 l 3.642 0 C 30.83 27.829 31.438 31.905 30.12 36.327 z" style="stroke: none; stroke-width: 1; stroke-dasharray: none; stroke-linecap: butt; stroke-linejoin: miter; stroke-miterlimit: 10; fill: rgb(38,111,183); fill-rule: nonzero; opacity: 1;" transform=" matrix(1 0 0 1 0 0) " stroke-linecap="round" />
	<path d="M 59.877 36.327 l 5.073 0 c 1.093 0 1.979 -0.886 1.979 -1.979 v -8.341 c 0 -1.093 -0.886 -1.979 -1.979 -1.979 l -3.642 0 C 58.062 28.128 57.585 32.228 59.877 36.327 z" style="stroke: none; stroke-width: 1; stroke-dasharray: none; stroke-linecap: butt; stroke-linejoin: miter; stroke-miterlimit: 10; fill: rgb(38,111,183); fill-rule: nonzero; opacity: 1;" transform=" matrix(1 0 0 1 0 0) " stroke-linecap="round" />
	<path d="M 79.25 62.78 v 9.174 v 10.703 c 0 1.567 -1.379 2.838 -3.079 2.838 l -9.134 2.451 L 45 79.721 l -22.037 8.225 l -9.133 -2.451 c -1.701 0 -3.079 -1.27 -3.079 -2.838 V 71.954 V 62.78 l 19.241 -11.287 c 2.736 -1.067 4.593 -3.559 4.593 -6.392 l 0.058 -2.395 h 20.72 l 0.055 2.395 c 0 2.833 1.857 5.325 4.593 6.392 L 79.25 62.78 z" style="stroke: none; stroke-width: 1; stroke-dasharray: none; stroke-linecap: butt; stroke-linejoin: miter; stroke-miterlimit: 10; fill: rgb(242,194,178); fill-rule: nonzero; opacity: 1;" transform=" matrix(1 0 0 1 0 0) " stroke-linecap="round" />
	<path d="M 79.178 71.954 h -8.422 c -3.096 0 -5.604 2.312 -5.6 5.165 c 0.005 3.665 0.007 7.999 -0.009 8.376 H 45 H 24.781 c -0.017 -0.377 -0.014 -4.711 -0.009 -8.376 c 0.004 -2.853 -2.505 -5.165 -5.6 -5.165 H 10.75 V 62.78 c 0 -4.562 3.538 -8.473 8.409 -9.293 l 9.246 -1.557 c 0.554 -0.093 1.085 -0.241 1.586 -0.437 l -0.002 -0.006 c 10.04 9.891 20.048 9.86 30.024 0 l -0.002 0.006 c 0.501 0.195 1.032 0.343 1.586 0.437 l 9.246 1.557 c 4.871 0.82 8.409 4.731 8.409 9.293 v 9.174 L 79.178 71.954 z" style="stroke: none; stroke-width: 1; stroke-dasharray: none; stroke-linecap: butt; stroke-linejoin: miter; stroke-miterlimit: 10; fill: rgb(38,111,183); fill-rule: nonzero; opacity: 1;" transform=" matrix(1 0 0 1 0 0) " stroke-linecap="round" />
	<path d="M 58.614 4.849 L 28.561 20.842 l 0.864 11.609 c 0.294 3.512 1.643 6.968 3.263 10.44 c 0.412 0.952 0.874 1.534 1.801 2.881 c 1.664 2.232 3.713 2.855 6.613 3.826 c 1.536 0.547 2.723 0.522 3.898 0.522 c 1.175 0 2.362 0.025 3.898 -0.522 c 2.9 -0.971 4.949 -1.594 6.613 -3.826 c 0.926 -1.347 1.389 -1.929 1.801 -2.881 c 1.621 -3.473 2.969 -6.928 3.263 -10.44 l 0.864 -11.609 L 58.614 4.849 z" style="stroke: none; stroke-width: 1; stroke-dasharray: none; stroke-linecap: butt; stroke-linejoin: miter; stroke-miterlimit: 10; fill: rgb(250,206,191); fill-rule: nonzero; opacity: 1;" transform=" matrix(1 0 0 1 0 0) " stroke-linecap="round" />
	<path d="M 55.08 44.485 h -6.077 c -0.525 0 -0.95 -0.425 -0.95 -0.95 c 0 -0.525 0.425 -0.95 0.95 -0.95 h 6.077 c 3.45 0 6.257 -2.807 6.257 -6.258 c 0 -0.525 0.425 -0.95 0.95 -0.95 c 0.525 0 0.95 0.425 0.95 0.95 C 63.237 40.825 59.577 44.485 55.08 44.485 z" style="stroke: none; stroke-width: 1; stroke-dasharray: none; stroke-linecap: butt; stroke-linejoin: miter; stroke-miterlimit: 10; fill: rgb(38,111,183); fill-rule: nonzero; opacity: 1;" transform=" matrix(1 0 0 1 0 0) " stroke-linecap="round" />
	<path d="M 34.127 26.923 c 0.905 -1.327 2.484 -1.999 4.074 -2.012 c 0.795 -0.002 1.588 0.177 2.294 0.513 c 0.703 0.344 1.334 0.819 1.78 1.5 c -0.812 0.027 -1.502 -0.033 -2.168 -0.057 c -0.662 -0.034 -1.284 -0.053 -1.907 -0.056 c -0.622 0 -1.245 0.02 -1.907 0.053 C 35.627 26.887 34.937 26.949 34.127 26.923 z" style="stroke: none; stroke-width: 1; stroke-dasharray: none; stroke-linecap: butt; stroke-linejoin: miter; stroke-miterlimit: 10; fill: rgb(220,102,65); fill-rule: nonzero; opacity: 1;" transform=" matrix(1 0 0 1 0 0) " stroke-linecap="round" />
	<path d="M 47.725 26.923 c 0.905 -1.327 2.484 -1.999 4.074 -2.012 c 0.795 -0.002 1.588 0.177 2.294 0.513 c 0.703 0.344 1.334 0.819 1.78 1.5 c -0.812 0.027 -1.502 -0.033 -2.168 -0.057 c -0.662 -0.034 -1.284 -0.053 -1.907 -0.056 c -0.622 0 -1.245 0.02 -1.907 0.053 C 49.225 26.887 48.535 26.949 47.725 26.923 z" style="stroke: none; stroke-width: 1; stroke-dasharray: none; stroke-linecap: butt; stroke-linejoin: miter; stroke-miterlimit: 10; fill: rgb(220,102,65); fill-rule: nonzero; opacity: 1;" transform=" matrix(1 0 0 1 0 0) " stroke-linecap="round" />
	<path d="M 39.327 37.911 c 1.051 0.461 1.986 0.944 2.927 1.271 c 0.934 0.338 1.841 0.529 2.743 0.534 c 0.901 -0.009 1.809 -0.203 2.743 -0.541 c 0.941 -0.328 1.878 -0.807 2.932 -1.264 c -0.504 1.03 -1.271 1.903 -2.235 2.585 c -0.963 0.673 -2.177 1.116 -3.438 1.119 c -1.26 -0.002 -2.477 -0.443 -3.44 -1.117 C 40.595 39.815 39.829 38.941 39.327 37.911 z" style="stroke: none; stroke-width: 1; stroke-dasharray: none; stroke-linecap: butt; stroke-linejoin: miter; stroke-miterlimit: 10; fill: rgb(220,102,65); fill-rule: nonzero; opacity: 1;" transform=" matrix(1 0 0 1 0 0) " stroke-linecap="round" />
	<path d="M 61.874 24.273 C 65.87 6.436 56.374 0 45.219 0 h 0 c -9.693 0 -19.709 7.076 -19.28 21 c 13.904 1.25 27.358 -4.04 32.675 -16.152 C 53.297 14.836 57.242 20.712 61.874 24.273 z" style="stroke: none; stroke-width: 1; stroke-dasharray: none; stroke-linecap: butt; stroke-linejoin: miter; stroke-miterlimit: 10; fill: rgb(243,170,0); fill-rule: nonzero; opacity: 1;" transform=" matrix(1 0 0 1 0 0) " stroke-linecap="round" />
	<path d="M 29.097 29.017 c -1.162 -4.389 -1.584 -8.112 -0.565 -10.541 h 2.425 C 29.576 21.256 28.957 24.77 29.097 29.017 z" style="stroke: none; stroke-width: 1; stroke-dasharray: none; stroke-linecap: butt; stroke-linejoin: miter; stroke-miterlimit: 10; fill: rgb(243,170,0); fill-rule: nonzero; opacity: 1;" transform=" matrix(1 0 0 1 0 0) " stroke-linecap="round" />
	<path d="M 60.818 29.188 c 1.162 -4.389 1.784 -8.283 0.765 -10.712 h -2.425 C 60.539 21.256 60.959 24.941 60.818 29.188 z" style="stroke: none; stroke-width: 1; stroke-dasharray: none; stroke-linecap: butt; stroke-linejoin: miter; stroke-miterlimit: 10; fill: rgb(243,170,0); fill-rule: nonzero; opacity: 1;" transform=" matrix(1 0 0 1 0 0) " stroke-linecap="round" />
	<path d="M 67.037 90 H 22.963 V 66.866 c 0 -2.278 1.846 -4.124 4.124 -4.124 h 35.826 c 2.278 0 4.124 1.846 4.124 4.124 V 90 z" style="stroke: none; stroke-width: 1; stroke-dasharray: none; stroke-linecap: butt; stroke-linejoin: miter; stroke-miterlimit: 10; fill: rgb(249,249,249); fill-rule: nonzero; opacity: 1;" transform=" matrix(1 0 0 1 0 0) " stroke-linecap="round" />
	<path d="M 85.305 90 H 4.695 c -0.567 0 -1.027 -0.459 -1.027 -1.027 c 0 -0.568 0.46 -1.027 1.027 -1.027 h 80.61 c 0.568 0 1.027 0.459 1.027 1.027 C 86.332 89.541 85.873 90 85.305 90 z" style="stroke: none; stroke-width: 1; stroke-dasharray: none; stroke-linecap: butt; stroke-linejoin: miter; stroke-miterlimit: 10; fill: rgb(204,204,204); fill-rule: nonzero; opacity: 1;" transform=" matrix(1 0 0 1 0 0) " stroke-linecap="round" />
	<circle cx="45.407000000000004" cy="75.197" r="3.697" style="stroke: none; stroke-width: 1; stroke-dasharray: none; stroke-linecap: butt; stroke-linejoin: miter; stroke-miterlimit: 10; fill: rgb(204,204,204); fill-rule: nonzero; opacity: 1;" transform="  matrix(1 0 0 1 0 0) "/>
</g>
</svg>